# xmcd CD database file
#
# Track frame offsets:
#	150
#	12875
#	25412
#	37187
#	48765
#	62102
#	73857
#	85622
#	96285
#	109310
#	119610
#	129335
#	143037
#	156235
#	166085
#	178485
#	191197
#	201272
#	214935
#	226760
#	238057
#	247157
#	254992
#	265682
#	277070
#	288095
#	298555
#	309557
#	321495
#	332895
#
# Disc length: 4601 seconds
#
# Revision: 0
# Processed by: cddbd v1.4b42PL1 Copyright (c) Steve Scherf et al.
# Submitted via: CDex 1.40Beta8
#
DISCID=dc11f71e
DTITLE=Jimmy Mccracklin and Paul Gaytes - Roots Of Rhythm and Blues
DYEAR=1991
DGENRE=Blues
TTITLE0=Mccracklin - The Walk
TTITLE1=Mccracklin - I'm To Blame
TTITLE2=Mccracklin - Minnie Lee
TTITLE3=Mccracklin - Take Care Of Yourself
TTITLE4=Mccracklin - Suffer
TTITLE5=Mccracklin - Get Tough
TTITLE6=Mccracklin - Later On
TTITLE7=Mccracklin - Everybody Rock
TTITLE8=Mccracklin - Come On
TTITLE9=Mccracklin - I Know
TTITLE10=Mccracklin - Country Baby
TTITLE11=Mccracklin - He Knows The Rules
TTITLE12=Mccracklin - The Wobble
TTITLE13=Mccracklin - I'm Through
TTITLE14=Mccracklin - Hurt Me
TTITLE15=Mccracklin - I'mm Take The Blame
TTITLE16=Mccracklin - One Track Love
TTITLE17=Mccracklin - Trottin'
TTITLE18=Gayten - Down Boy
TTITLE19=Gayten - Get It
TTITLE20=Gayten - Music Goes Round And Round
TTITLE21=Gayten - Windy
TTITLE22=Gayten - Your Better Believe It
TTITLE23=Gayten - Mother Roux
TTITLE24=Gayten - Tickle Toe
TTITLE25=Gayten - Nervous Boogie
TTITLE26=Gayten - For You My Love
TTITLE27=Gayten - The Sweeper
TTITLE28=Gayten - Hot Cross Buns
TTITLE29=Gayten - The Hunch
EXTD=YEAR: 1991 ID3G: 0
EXTT0=
EXTT1=
EXTT2=
EXTT3=
EXTT4=
EXTT5=
EXTT6=
EXTT7=
EXTT8=
EXTT9=
EXTT10=
EXTT11=
EXTT12=
EXTT13=
EXTT14=
EXTT15=
EXTT16=
EXTT17=
EXTT18=
EXTT19=
EXTT20=
EXTT21=
EXTT22=
EXTT23=
EXTT24=
EXTT25=
EXTT26=
EXTT27=
EXTT28=
EXTT29=
PLAYORDER=
